Coordinates
version=1
nRows=22
nColumns=24
inDegrees=yes

Units are S.I. units (second, meters, Newtons, ...)
Angles are in degrees.

endheader
time	pelvis_tilt	pelvis_list	pelvis_rotation	pelvis_tx	pelvis_ty	pelvis_tz	hip_flexion_r	hip_adduction_r	hip_rotation_r	knee_angle_r	ankle_angle_r	subtalar_angle_r	mtp_angle_r	hip_flexion_l	hip_adduction_l	hip_rotation_l	knee_angle_l	ankle_angle_l	subtalar_angle_l	mtp_angle_l	lumbar_extension	lumbar_bending	lumbar_rotation
      1.12883333	      0.63024853	      6.49241657	     -3.45880139	      0.13608080	      0.99371342	      0.35874967	     -5.41795153	     -9.54376160	     -5.82137595	    -47.24848552	    -18.20762297	     -4.97486446	     40.42556081	     17.25829737	     11.91055806	      3.16097117	    -16.44268181	     -1.27669966	    -18.63553774	      0.84226413	    -12.15998448	     -2.27831089	      2.27766471
      1.13300000	      0.70487596	      6.74893932	     -3.52877825	      0.14150995	      0.99337766	      0.35836446	     -4.89780777	     -9.97352991	     -5.75883500	    -48.55681188	    -19.49139046	     -5.35601021	     40.23101206	     17.14652586	     12.24637827	      3.03234452	    -17.01517423	     -0.71481528	    -18.60439350	      0.71546586	    -12.21603164	     -2.53426667	      2.14922389
      1.13716667	      0.79165103	      7.00877856	     -3.59367564	      0.14689254	      0.99307522	      0.35796839	     -4.37555265	    -10.40615333	     -5.69198535	    -49.85884190	    -20.74912017	     -5.73135327	     39.90539271	     17.00161498	     12.58715298	      2.91100784	    -17.54120012	     -0.18206600	    -18.57279311	      0.57378951	    -12.30469763	     -2.81665493	      2.01321506
      1.14133333	      0.89534319	      7.28112121	     -3.66262497	      0.15225820	      0.99285082	      0.35759156	     -3.85783103	    -10.84713702	     -5.60370271	    -51.15539927	    -21.92074121	     -5.95505462	     34.89186019	     16.79706755	     12.94274281	      2.82721793	    -17.97938379	      0.37834995	    -18.50549823	     -1.18222847	    -12.41901450	     -3.13658755	      1.89174980
      1.14550000	      0.98263846	      7.56562635	     -3.74340934	      0.15763158	      0.99264853	      0.35720474	     -3.30822040	    -11.30917476	     -5.50855252	    -52.42313564	    -23.09964590	     -6.25841748	     34.81701386	     16.56725062	     13.30945463	      2.75950314	    -18.31665604	      0.81523490	    -18.55440018	     -1.17125811	    -12.49387813	     -3.44761790	      1.74424206
      1.14966667	      1.08820483	      7.79779661	     -3.81146254	      0.16290948	      0.99251263	      0.35685608	     -2.77684232	    -11.68683566	     -5.38668277	    -53.64624259	    -24.28603558	     -6.73229681	     34.57873063	     16.32923599	     13.61476713	      2.64953927	    -18.68679965	      1.28202155	    -18.53211553	     -1.16632181	    -12.62477852	     -3.71570739	      1.59618773
      1.15383333	      1.17317570	      8.02073795	     -3.89758777	      0.16821334	      0.99239969	      0.35651911	     -2.20738446	    -12.05067249	     -5.23074575	    -54.85716408	    -25.33133367	     -7.00730004	     28.76074634	     16.07137226	     13.90281655	      2.53645394	    -18.97443359	      1.82409920	    -18.41817180	     -1.36858116	    -12.69894427	     -3.94137607	      1.48412600
      1.15800000	      1.26264286	      8.27796949	     -3.98850694	      0.17351617	      0.99234303	      0.35616025	     -1.63399151	    -12.46267388	     -5.08309222	    -56.02956975	    -26.33065482	     -7.32320545	     28.67695361	     15.76038357	     14.23435040	      2.47361965	    -19.14269008	      2.20793525	    -18.44780237	     -1.35909881	    -12.77621911	     -4.20706653	      1.32898331
      1.16216667	      1.37746873	      8.46510582	     -4.06902714	      0.17874555	      0.99238323	      0.35584016	     -1.09614499	    -12.76757408	     -4.91346732	    -57.13445279	    -27.32686828	     -7.83285387	     28.30711261	     15.42610191	     14.48875440	      2.38553337	    -19.34092371	      2.64388544	    -18.43489745	     -1.35627905	    -12.91133420	     -4.38945183	      1.17432590
      1.16633333	      1.43726850	      8.66066784	     -4.15860633	      0.18396868	      0.99238913	      0.35557147	     -0.47582521	    -13.06658414	     -4.69920969	    -58.24445852	    -28.04201173	     -8.03670958	     22.56647387	     15.13846536	     14.72814231	      2.22911386	    -19.50946307	      3.20740641	    -18.11349877	     -1.47978878	    -12.96094027	     -4.59482486	      0.98036611
      1.17050000	      1.55526421	      8.88301336	     -4.25757255	      0.18922307	      0.99254289	      0.35524075	      0.07501203	    -13.41453580	     -4.51478166	    -59.27963665	    -28.77304672	     -8.36856624	     22.46787926	     14.70814423	     15.02852312	      2.22411289	    -19.49247833	      3.44653710	    -18.25643990	     -1.47517709	    -13.07450866	     -4.82505175	      0.87104986
      1.17466667	      1.65913548	      9.06728782	     -4.34977692	      0.19443493	      0.99273442	      0.35493814	      0.63962873	    -13.69697088	     -4.30744209	    -60.26484936	    -29.37096731	     -8.73175820	     22.29187051	     14.28435044	     15.28353972	      2.21651024	    -19.47099521	      3.72703566	    -18.32275557	     -1.47037649	    -13.18491076	     -5.01504016	      0.73418593
      1.17883333	      1.73120971	      9.19772476	     -4.42763977	      0.19960566	      0.99295395	      0.35466195	      1.23586702	    -13.88961318	     -4.07670030	    -61.21243763	    -29.72046116	     -8.98284142	     16.20908098	     13.89030940	     15.47424890	      2.19488732	    -19.46012823	      4.07854355	    -18.30140927	     -1.55760271	    -13.25528342	     -5.11024042	      0.44916364
      1.18300000	      1.83835508	      9.35258946	     -4.53390390	      0.20479902	      0.99326562	      0.35439498	      1.79894145	    -14.12002582	     -3.83949073	    -62.09634584	    -30.02070977	     -9.26935120	     16.15031904	     13.42120304	     15.69166635	      2.17337413	    -19.35489984	      4.34053616	    -18.32405543	     -1.55098352	    -13.36224684	     -5.27012032	      0.39090343
      1.18716667	      1.92826004	      9.47675539	     -4.63011393	      0.20997068	      0.99362477	      0.35414442	      2.37171691	    -14.29439504	     -3.59163916	    -62.92199763	    -30.15217142	     -9.57271667	     16.04755912	     12.95212752	     15.87553538	      2.17086431	    -19.22132788	      4.58623848	    -18.33457022	     -1.54557717	    -13.45302690	     -5.38732714	      0.27903116
      1.19133333	      2.01712863	      9.57769697	     -4.72372844	      0.21513057	      0.99403823	      0.35390516	      2.93839916	    -14.42972630	     -3.33937067	    -63.69052420	    -30.11628404	     -9.86048320	     15.91024041	     12.46529694	     16.03362357	      2.17150280	    -19.05535304	      4.81889143	    -18.33677266	     -1.54130637	    -13.54220509	     -5.47327174	      0.14284609
      1.19550000	      2.10326030	      9.65490152	     -4.81491605	      0.22028908	      0.99452351	      0.35367607	      3.49667687	    -14.52431130	     -3.08111041	    -64.39525012	    -29.90482391	    -10.12591234	     15.74991185	     11.96039454	     16.16612447	      2.18595666	    -18.85350044	      5.03051162	    -18.33473917	     -1.53849282	    -13.63010185	     -5.52740879	     -0.00015266
      1.19966667	      2.19553847	      9.71389355	     -4.88356123	      0.22544338	      0.99508800	      0.35342779	      4.03112076	    -14.58240377	     -2.83721159	    -65.04113476	    -29.50110964	    -10.32705837	     10.37016150	     11.40467559	     16.29740425	      2.32531848	    -18.57293456	      5.09729378	    -18.54046725	     -1.64530496	    -13.69897409	     -5.53160821	     -0.33025887
      1.20383333	      2.25201843	      9.74139113	     -4.97665572	      0.23054992	      0.99563216	      0.35323280	      4.61092520	    -14.58879105	     -2.55378917	    -65.63921613	    -28.88881726	    -10.51630246	     10.34337739	     10.91959338	     16.36598286	      2.30964937	    -18.35679545	      5.32572297	    -18.42895534	     -1.63967856	    -13.76162493	     -5.53494964	     -0.36438416
      1.20800000	      2.30621988	      9.74154089	     -5.05780636	      0.23566721	      0.99624902	      0.35304844	      5.17067395	    -14.54796037	     -2.27716450	    -66.15796022	    -28.17139309	    -10.71965471	     10.30380538	     10.40719345	     16.40753366	      2.32838690	    -18.09031631	      5.50682638	    -18.36313970	     -1.63714400	    -13.81522426	     -5.50283420	     -0.46260057
      1.21216667	      2.36336901	      9.72460463	     -5.13072583	      0.24076264	      0.99691071	      0.35286349	      5.71428805	    -14.47755759	     -2.00992090	    -66.61824825	    -27.28919402	    -10.90690757	     10.25609838	      9.87955128	     16.43347751	      2.36384803	    -17.80405029	      5.65472256	    -18.32226127	     -1.63717283	    -13.87493227	     -5.44540987	     -0.58984192
      1.21633333	      2.40632187	      9.69435104	     -5.19948468	      0.24586956	      0.99761765	      0.35268816	      6.25749818	    -14.37764380	     -1.73353876	    -67.01021555	    -26.24353026	    -10.97389718	     10.16597688	      9.33767852	     16.44527972	      2.43970445	    -17.46262847	      5.77462226	    -18.28966164	     -1.64291331	    -13.90583483	     -5.38013344	     -0.76386112
